<svg xmlns="http://www.w3.org/2000/svg" viewBox="0 0 64 64"><circle cx="34.5" cy="26.5" r="22.5" fill="#ffded5"/><circle cx="5.5" cy="40.5" r="2.5" fill="none" stroke="#4c241d" stroke-linecap="round" stroke-linejoin="round" stroke-width="2"/><circle cx="26.74" cy="4.987" r="1.069" fill="#4c241d"/><path fill="none" stroke="#4c241d" stroke-linecap="round" stroke-linejoin="round" stroke-width="2" d="M11.837 2.663 8.163 6.337M8.163 2.663l3.674 3.674"/><path fill="#a9ba5a" stroke="#4c241d" stroke-linecap="round" stroke-linejoin="round" stroke-width="2" d="M4 11h14.835A6.165 6.165 0 0 1 25 17.165V24h0-14.219A6.781 6.781 0 0 1 4 17.219V11h0ZM55.219 24H41h0v-6.835A6.165 6.165 0 0 1 47.165 11H62v6.219A6.781 6.781 0 0 1 55.219 24Z"/><path fill="#a9ba5a" stroke="#4c241d" stroke-linecap="round" stroke-linejoin="round" stroke-width="2" d="M33 12h0a14 14 0 0 1 14 14v2.26A6.74 6.74 0 0 1 40.26 35H25.74A6.74 6.74 0 0 1 19 28.26V26a14 14 0 0 1 14-14Z"/><path fill="none" stroke="#4c241d" stroke-linecap="round" stroke-linejoin="round" stroke-width="2" d="M32 27h2M32 30h2"/><path fill="#6b4f5b" stroke="#4c241d" stroke-linecap="round" stroke-linejoin="round" stroke-width="2" d="M36 25v-1.5a1.5 1.5 0 0 1 1.5-1.5h3a1.5 1.5 0 0 1 1.5 1.5V25m-19 0v-1.5a1.5 1.5 0 0 1 1.5-1.5h3a1.5 1.5 0 0 1 1.5 1.5V25m-6 10h20a7 7 0 0 1 7 7v13h0-34 0V42a7 7 0 0 1 7-7z"/><path fill="#bf7e68" stroke="#4c241d" stroke-linecap="round" stroke-linejoin="round" stroke-width="2" d="M40 45.878V42a7 7 0 0 0-7-7H23a7 7 0 0 0-7 7v18l24-5"/><path fill="#a9ba5a" stroke="#4c241d" stroke-linecap="round" stroke-linejoin="round" stroke-width="2" d="M38 54h1a4 4 0 0 1 4 4v2h0-9 0v-2a4 4 0 0 1 4-4zm-10 0h1a4 4 0 0 1 4 4v2h0-9 0v-2a4 4 0 0 1 4-4z"/><path fill="none" stroke="#4c241d" stroke-linecap="round" stroke-linejoin="round" stroke-width="2" d="M57 28v2M57 34v2M53 32h2M59 32h2"/></svg>