<svg xmlns="http://www.w3.org/2000/svg" enable-background="new 0 0 48 48" viewBox="0 0 48 48"><path fill="#546e7a" d="M35,16c0-6.075-4.925-11-11-11S13,9.925,13,16L9,29.4c0,0,5.1,2.2,15,2.2s15-2.2,15-2.2L35,16z"/><path fill="#607d8b" d="M37.017,37.121C35.615,35.208,28,32,28,32h-4h-4c0,0-7.615,3.208-9.017,5.121C9.289,39.433,9,43,9,43
	h30C39,43,38.711,39.433,37.017,37.121z"/><path fill="#455a64" d="M39.017 38.121C37.615 36.208 29 31 29 31c0 4 0 3-1 6 4.062 2.545 5 6 5 6h9C42 43 40.711 40.433 39.017 38.121zM8.983 38.121C10.385 36.208 19 31 19 31c0 4 0 3 1 6-4.062 2.545-5 6-5 6H6C6 43 7.289 40.433 8.983 38.121z"/><path fill="none" stroke="#455a64" stroke-linecap="round" stroke-miterlimit="10" d="M29.5,33.611c0,0.042,0,0.084-0.001,0.125"/><path fill="none" stroke="#455a64" stroke-dasharray=".253 1.014" stroke-linecap="round" stroke-miterlimit="10" d="
			M29.377,34.745C28.844,37.103,26.639,38.5,24,38.5c-2.821,0-5.145-1.596-5.463-4.256"/><path fill="none" stroke="#455a64" stroke-linecap="round" stroke-miterlimit="10" d="M18.501,33.736
			C18.5,33.695,18.5,33.653,18.5,33.611"/><path fill="#37474f" d="M34 18c-1.326-5.243-5-2-10-2v15c9 0 13-2 13-2L34 18zM14 18c1.326-5.243 5-2 10-2v15c-9 0-13-2-13-2L14 18z"/><path fill="#37474f" d="M19,24v9c0,2.959,5,3,5,3s5-0.011,5-3v-9H19z"/><rect width="2" height="11" x="23" y="5" fill="#637b86"/><path fill="#607d8b" d="M25.5 25h-3v-1.5c0-.828.672-1.5 1.5-1.5h0c.828 0 1.5.672 1.5 1.5V25zM27.875 18c-.707 0-1.351.156-1.875.409v3.182C26.524 21.844 27.168 22 27.875 22 29.601 22 31 21.105 31 20 31 18.895 29.601 18 27.875 18zM20.125 22c.707 0 1.351-.156 1.875-.409v-3.182C21.476 18.156 20.832 18 20.125 18 18.399 18 17 18.895 17 20 17 21.105 18.399 22 20.125 22z"/><polygon fill="#607d8b" points="27 24 27 25 30 29 32 24"/><polygon fill="#607d8b" points="21 24 21 25 18 29 16 24"/><rect width="12" height="1" x="18" y="28" fill="#607d8b"/><polygon fill="#455a64" points="24 33.5 18 29 30 29"/><rect width="1" height="2" x="25" y="26.5" fill="#607d8b"/><rect width="1" height="2" x="22" y="26.5" fill="#607d8b"/><path fill="#ef9a9a" d="M39.161,43l4.808-18.751c0.137-0.534-0.186-1.079-0.721-1.217c-0.533-0.139-1.079,0.186-1.217,0.721
	L37.096,43H39.161z"/><path fill="#f44336" d="M38.644,43l4.84-18.875c0.068-0.268-0.093-0.54-0.36-0.608c-0.266-0.068-0.54,0.094-0.608,0.36
	L37.612,43H38.644z"/></svg>